<!-- Generated by IcoMoon.io -->
<svg version="1.1" xmlns="http://www.w3.org/2000/svg" width="768" height="768" viewBox="0 0 768 768">
<title></title>
<g id="icomoon-ignore">
</g>
<path fill="#000" d="M480 384c0 26.528-10.72 50.464-28.128 67.872s-41.344 28.128-67.872 28.128-50.464-10.72-67.872-28.128-28.128-41.344-28.128-67.872 10.72-50.464 28.128-67.872 41.344-28.128 67.872-28.128 50.464 10.72 67.872 28.128 28.128 41.344 28.128 67.872zM544.32 416h190.4c17.664 0 32-14.336 32-32s-14.336-32-32-32h-190.4c-1.184 0-2.336 0.064-3.488 0.192-6.336-31.424-21.92-59.52-43.68-81.312-28.928-28.928-68.992-46.88-113.152-46.88s-84.224 17.952-113.152 46.848c-21.792 21.792-37.344 49.888-43.68 81.28-1.024-0.064-2.112-0.128-3.168-0.128h-190.4c-17.664 0-32 14.336-32 32s14.336 32 32 32h190.4c1.056 0 2.144-0.064 3.168-0.16 6.336 31.424 21.92 59.52 43.68 81.28 28.928 28.928 68.992 46.88 113.152 46.88s84.224-17.952 113.152-46.848c21.792-21.792 37.344-49.888 43.68-81.312 1.152 0.128 2.304 0.192 3.488 0.192z"></path>
</svg>
